<svg width="187" height="46" viewBox="0 0 187 46" fill="none" xmlns="http://www.w3.org/2000/svg">
<path d="M14.5019 38.7598C16.0644 38.7598 17.334 38.3301 18.3105 37.4707C19.2871 36.6113 19.7949 35.4688 19.834 34.043H27.7734C27.7539 36.1914 27.168 38.1641 26.0156 39.9609C24.8633 41.7383 23.2812 43.125 21.2695 44.1211C19.2773 45.0977 17.0703 45.5859 14.6484 45.5859C10.1172 45.5859 6.54297 44.1504 3.92579 41.2793C1.3086 38.3887 0 34.4043 0 29.3262V28.7695C0 23.8867 1.29883 19.9902 3.89649 17.0801C6.49414 14.1699 10.0586 12.7148 14.5898 12.7148C18.5547 12.7148 21.7285 13.8477 24.1113 16.1133C26.5137 18.3594 27.7344 21.3574 27.7734 25.1074H19.834C19.7949 23.4668 19.2871 22.1387 18.3105 21.123C17.334 20.0879 16.0449 19.5703 14.4434 19.5703C12.4707 19.5703 10.9766 20.293 9.96091 21.7383C8.96485 23.1641 8.4668 25.4883 8.4668 28.7109V29.5898C8.4668 32.8516 8.96485 35.1953 9.96091 36.6211C10.957 38.0469 12.4707 38.7598 14.5019 38.7598ZM44.9766 45C44.5859 44.2383 44.3027 43.291 44.1269 42.1582C42.0762 44.4434 39.4102 45.5859 36.1289 45.5859C33.0234 45.5859 30.4453 44.6875 28.3945 42.8906C26.3633 41.0938 25.3476 38.8281 25.3476 36.0938C25.3476 32.7344 26.5879 30.1562 29.0684 28.3594C31.5684 26.5625 35.1719 25.6543 39.8789 25.6348H43.7754V23.8184C43.7754 22.3535 43.3945 21.1816 42.6328 20.3027C41.8906 19.4238 40.709 18.9844 39.0879 18.9844C37.6621 18.9844 36.5391 19.3262 35.7187 20.0098C34.918 20.6934 34.5176 21.6309 34.5176 22.8223H26.0508C26.0508 20.9863 26.6172 19.2871 27.75 17.7246C28.8828 16.1621 30.4844 14.9414 32.5547 14.0625C34.625 13.1641 36.9492 12.7148 39.5273 12.7148C43.4336 12.7148 46.5293 13.7012 48.8144 15.6738C51.1191 17.627 52.2715 20.3809 52.2715 23.9355V37.6758C52.291 40.6836 52.7109 42.959 53.5312 44.502V45H44.9766ZM37.9746 39.1113C39.2246 39.1113 40.3769 38.8379 41.4316 38.291C42.4863 37.7246 43.2676 36.9727 43.7754 36.0352V30.5859H40.6113C36.373 30.5859 34.1172 32.0508 33.8437 34.9805L33.8144 35.4785C33.8144 36.5332 34.1855 37.4023 34.9277 38.0859C35.6699 38.7695 36.6855 39.1113 37.9746 39.1113ZM81.3398 29.4434C81.3398 34.5215 80.2559 38.4863 78.0879 41.3379C75.9199 44.1699 72.8926 45.5859 69.0059 45.5859C65.5684 45.5859 62.8242 44.2676 60.7734 41.6309L60.3926 45H52.7754V0H61.2422V16.1426C63.1953 13.8574 65.7637 12.7148 68.9473 12.7148C72.8144 12.7148 75.8418 14.1406 78.0293 16.9922C80.2363 19.8242 81.3398 23.8184 81.3398 28.9746V29.4434ZM72.873 28.8281C72.873 25.625 72.3652 23.291 71.3496 21.8262C70.334 20.3418 68.8203 19.5996 66.8086 19.5996C64.1133 19.5996 62.2578 20.7031 61.2422 22.9102V35.4199C62.2773 37.6465 64.1523 38.7598 66.8672 38.7598C69.6016 38.7598 71.3984 37.4121 72.2578 34.7168C72.668 33.4277 72.873 31.4648 72.873 28.8281ZM98.3965 21.2402C97.2441 21.084 96.2285 21.0059 95.3496 21.0059C92.1465 21.0059 90.0469 22.0898 89.0508 24.2578V45H80.584V13.3008H88.582L88.8164 17.0801C90.5156 14.1699 92.8691 12.7148 95.8769 12.7148C96.8144 12.7148 97.6934 12.8418 98.5137 13.0957L98.3965 21.2402ZM94.125 28.8574C94.125 25.7129 94.7305 22.9102 95.9414 20.4492C97.1523 17.9883 98.8906 16.084 101.156 14.7363C103.441 13.3887 106.087 12.7148 109.095 12.7148C113.373 12.7148 116.859 14.0234 119.554 16.6406C122.269 19.2578 123.783 22.8125 124.095 27.3047L124.154 29.4727C124.154 34.3359 122.796 38.2422 120.082 41.1914C117.367 44.1211 113.724 45.5859 109.154 45.5859C104.584 45.5859 100.931 44.1211 98.1973 41.1914C95.4824 38.2617 94.125 34.2773 94.125 29.2383V28.8574ZM102.591 29.4727C102.591 32.4805 103.158 34.7852 104.291 36.3867C105.423 37.9688 107.045 38.7598 109.154 38.7598C111.205 38.7598 112.806 37.9785 113.959 36.416C115.111 34.834 115.687 32.3145 115.687 28.8574C115.687 25.9082 115.111 23.623 113.959 22.002C112.806 20.3809 111.185 19.5703 109.095 19.5703C107.025 19.5703 105.423 20.3809 104.291 22.002C103.158 23.6035 102.591 26.0938 102.591 29.4727ZM131.162 13.3008L131.425 16.9629C133.691 14.1309 136.728 12.7148 140.537 12.7148C143.896 12.7148 146.396 13.7012 148.037 15.6738C149.677 17.6465 150.517 20.5957 150.556 24.5215V45H142.089V24.7266C142.089 22.9297 141.699 21.6309 140.918 20.8301C140.136 20.0098 138.837 19.5996 137.021 19.5996C134.638 19.5996 132.851 20.6152 131.66 22.6465V45H123.193V13.3008H131.162ZM159.937 45H151.441V13.3008H159.937V45ZM150.943 5.09766C150.943 3.82813 151.363 2.7832 152.203 1.96289C153.062 1.14258 154.224 0.732422 155.689 0.732422C157.134 0.732422 158.287 1.14258 159.146 1.96289C160.005 2.7832 160.435 3.82813 160.435 5.09766C160.435 6.38672 159.996 7.44141 159.117 8.26172C158.257 9.08203 157.115 9.49219 155.689 9.49219C154.263 9.49219 153.111 9.08203 152.232 8.26172C151.373 7.44141 150.943 6.38672 150.943 5.09766ZM178.107 36.2402C178.107 35.2051 177.589 34.3945 176.554 33.8086C175.539 33.2031 173.898 32.666 171.632 32.1973C164.093 30.6152 160.324 27.4121 160.324 22.5879C160.324 19.7754 161.486 17.4316 163.81 15.5566C166.154 13.6621 169.211 12.7148 172.98 12.7148C177.004 12.7148 180.216 13.6621 182.619 15.5566C185.041 17.4512 186.252 19.9121 186.252 22.9395H177.785C177.785 21.7285 177.394 20.7324 176.613 19.9512C175.832 19.1504 174.611 18.75 172.951 18.75C171.525 18.75 170.421 19.0723 169.64 19.7168C168.859 20.3613 168.468 21.1816 168.468 22.1777C168.468 23.1152 168.908 23.877 169.787 24.4629C170.685 25.0293 172.189 25.5273 174.298 25.957C176.408 26.3672 178.185 26.8359 179.63 27.3633C184.103 29.0039 186.339 31.8457 186.339 35.8887C186.339 38.7793 185.099 41.123 182.619 42.9199C180.138 44.6973 176.935 45.5859 173.009 45.5859C170.353 45.5859 167.99 45.1172 165.92 44.1797C163.869 43.2227 162.257 41.9238 161.086 40.2832C159.914 38.623 159.328 36.8359 159.328 34.9219H167.355C167.433 36.4258 167.99 37.5781 169.025 38.3789C170.06 39.1797 171.447 39.5801 173.185 39.5801C174.806 39.5801 176.027 39.2773 176.847 38.6719C177.687 38.0469 178.107 37.2363 178.107 36.2402Z" fill="#333333"/>
</svg>
