<svg width="188" height="46" viewBox="0 0 188 46" fill="none" xmlns="http://www.w3.org/2000/svg">
<path d="M15.4355 38.7598C16.998 38.7598 18.2676 38.3301 19.2441 37.4707C20.2207 36.6113 20.7285 35.4688 20.7676 34.043H28.707C28.6875 36.1914 28.1016 38.1641 26.9492 39.9609C25.7969 41.7383 24.2148 43.125 22.2031 44.1211C20.2109 45.0977 18.0039 45.5859 15.582 45.5859C11.0508 45.5859 7.47656 44.1504 4.85938 41.2793C2.24219 38.3887 0.933594 34.4043 0.933594 29.3262V28.7695C0.933594 23.8867 2.23242 19.9902 4.83008 17.0801C7.42773 14.1699 10.9922 12.7148 15.5234 12.7148C19.4883 12.7148 22.6621 13.8477 25.0449 16.1133C27.4473 18.3594 28.668 21.3574 28.707 25.1074H20.7676C20.7285 23.4668 20.2207 22.1387 19.2441 21.123C18.2676 20.0879 16.9785 19.5703 15.377 19.5703C13.4043 19.5703 11.9102 20.293 10.8945 21.7383C9.89844 23.1641 9.40039 25.4883 9.40039 28.7109V29.5898C9.40039 32.8516 9.89844 35.1953 10.8945 36.6211C11.8906 38.0469 13.4043 38.7598 15.4355 38.7598ZM45.9102 45C45.5195 44.2383 45.2363 43.291 45.0605 42.1582C43.0098 44.4434 40.3438 45.5859 37.0625 45.5859C33.957 45.5859 31.3789 44.6875 29.3281 42.8906C27.2969 41.0938 26.2812 38.8281 26.2812 36.0938C26.2812 32.7344 27.5215 30.1562 30.002 28.3594C32.502 26.5625 36.1055 25.6543 40.8125 25.6348H44.709V23.8184C44.709 22.3535 44.3281 21.1816 43.5664 20.3027C42.8242 19.4238 41.6426 18.9844 40.0215 18.9844C38.5957 18.9844 37.4727 19.3262 36.6523 20.0098C35.8516 20.6934 35.4512 21.6309 35.4512 22.8223H26.9844C26.9844 20.9863 27.5508 19.2871 28.6836 17.7246C29.8164 16.1621 31.418 14.9414 33.4883 14.0625C35.5586 13.1641 37.8828 12.7148 40.4609 12.7148C44.3672 12.7148 47.4629 13.7012 49.748 15.6738C52.0527 17.627 53.2051 20.3809 53.2051 23.9355V37.6758C53.2246 40.6836 53.6445 42.959 54.4648 44.502V45H45.9102ZM38.9082 39.1113C40.1582 39.1113 41.3105 38.8379 42.3652 38.291C43.4199 37.7246 44.2012 36.9727 44.709 36.0352V30.5859H41.5449C37.3066 30.5859 35.0508 32.0508 34.7773 34.9805L34.748 35.4785C34.748 36.5332 35.1191 37.4023 35.8613 38.0859C36.6035 38.7695 37.6191 39.1113 38.9082 39.1113ZM82.2734 29.4434C82.2734 34.5215 81.1895 38.4863 79.0215 41.3379C76.8535 44.1699 73.8262 45.5859 69.9395 45.5859C66.502 45.5859 63.7578 44.2676 61.707 41.6309L61.3262 45H53.709V0H62.1758V16.1426C64.1289 13.8574 66.6973 12.7148 69.8809 12.7148C73.748 12.7148 76.7754 14.1406 78.9629 16.9922C81.1699 19.8242 82.2734 23.8184 82.2734 28.9746V29.4434ZM73.8066 28.8281C73.8066 25.625 73.2988 23.291 72.2832 21.8262C71.2676 20.3418 69.7539 19.5996 67.7422 19.5996C65.0469 19.5996 63.1914 20.7031 62.1758 22.9102V35.4199C63.2109 37.6465 65.0859 38.7598 67.8008 38.7598C70.5352 38.7598 72.332 37.4121 73.1914 34.7168C73.6016 33.4277 73.8066 31.4648 73.8066 28.8281ZM99.3301 21.2402C98.1777 21.084 97.1621 21.0059 96.2832 21.0059C93.0801 21.0059 90.9805 22.0898 89.9844 24.2578V45H81.5176V13.3008H89.5156L89.75 17.0801C91.4492 14.1699 93.8027 12.7148 96.8105 12.7148C97.748 12.7148 98.627 12.8418 99.4473 13.0957L99.3301 21.2402ZM95.0586 28.8574C95.0586 25.7129 95.6641 22.9102 96.875 20.4492C98.0859 17.9883 99.8242 16.084 102.09 14.7363C104.375 13.3887 107.021 12.7148 110.029 12.7148C114.307 12.7148 117.793 14.0234 120.488 16.6406C123.203 19.2578 124.717 22.8125 125.029 27.3047L125.088 29.4727C125.088 34.3359 123.73 38.2422 121.016 41.1914C118.301 44.1211 114.658 45.5859 110.088 45.5859C105.518 45.5859 101.865 44.1211 99.1309 41.1914C96.416 38.2617 95.0586 34.2773 95.0586 29.2383V28.8574ZM103.525 29.4727C103.525 32.4805 104.092 34.7852 105.225 36.3867C106.357 37.9688 107.979 38.7598 110.088 38.7598C112.139 38.7598 113.74 37.9785 114.893 36.416C116.045 34.834 116.621 32.3145 116.621 28.8574C116.621 25.9082 116.045 23.623 114.893 22.002C113.74 20.3809 112.119 19.5703 110.029 19.5703C107.959 19.5703 106.357 20.3809 105.225 22.002C104.092 23.6035 103.525 26.0938 103.525 29.4727ZM132.096 13.3008L132.359 16.9629C134.625 14.1309 137.662 12.7148 141.471 12.7148C144.83 12.7148 147.33 13.7012 148.971 15.6738C150.611 17.6465 151.451 20.5957 151.49 24.5215V45H143.023V24.7266C143.023 22.9297 142.633 21.6309 141.852 20.8301C141.07 20.0098 139.771 19.5996 137.955 19.5996C135.572 19.5996 133.785 20.6152 132.594 22.6465V45H124.127V13.3008H132.096ZM160.871 45H152.375V13.3008H160.871V45ZM151.877 5.09766C151.877 3.82813 152.297 2.7832 153.137 1.96289C153.996 1.14258 155.158 0.732422 156.623 0.732422C158.068 0.732422 159.221 1.14258 160.08 1.96289C160.939 2.7832 161.369 3.82813 161.369 5.09766C161.369 6.38672 160.93 7.44141 160.051 8.26172C159.191 9.08203 158.049 9.49219 156.623 9.49219C155.197 9.49219 154.045 9.08203 153.166 8.26172C152.307 7.44141 151.877 6.38672 151.877 5.09766ZM179.041 36.2402C179.041 35.2051 178.523 34.3945 177.488 33.8086C176.473 33.2031 174.832 32.666 172.566 32.1973C165.027 30.6152 161.258 27.4121 161.258 22.5879C161.258 19.7754 162.42 17.4316 164.744 15.5566C167.088 13.6621 170.145 12.7148 173.914 12.7148C177.938 12.7148 181.15 13.6621 183.553 15.5566C185.975 17.4512 187.186 19.9121 187.186 22.9395H178.719C178.719 21.7285 178.328 20.7324 177.547 19.9512C176.766 19.1504 175.545 18.75 173.885 18.75C172.459 18.75 171.355 19.0723 170.574 19.7168C169.793 20.3613 169.402 21.1816 169.402 22.1777C169.402 23.1152 169.842 23.877 170.721 24.4629C171.619 25.0293 173.123 25.5273 175.232 25.957C177.342 26.3672 179.119 26.8359 180.564 27.3633C185.037 29.0039 187.273 31.8457 187.273 35.8887C187.273 38.7793 186.033 41.123 183.553 42.9199C181.072 44.6973 177.869 45.5859 173.943 45.5859C171.287 45.5859 168.924 45.1172 166.854 44.1797C164.803 43.2227 163.191 41.9238 162.02 40.2832C160.848 38.623 160.262 36.8359 160.262 34.9219H168.289C168.367 36.4258 168.924 37.5781 169.959 38.3789C170.994 39.1797 172.381 39.5801 174.119 39.5801C175.74 39.5801 176.961 39.2773 177.781 38.6719C178.621 38.0469 179.041 37.2363 179.041 36.2402Z" fill="white"/>
</svg>
