<?xml version="1.0" encoding="UTF-8" standalone="no"?>
<svg
   xmlns:dc="http://purl.org/dc/elements/1.1/"
   xmlns:cc="http://creativecommons.org/ns#"
   xmlns:rdf="http://www.w3.org/1999/02/22-rdf-syntax-ns#"
   xmlns:svg="http://www.w3.org/2000/svg"
   xmlns="http://www.w3.org/2000/svg"
   xmlns:sodipodi="http://sodipodi.sourceforge.net/DTD/sodipodi-0.dtd"
   xmlns:inkscape="http://www.inkscape.org/namespaces/inkscape"
   version="1.1"
   x="0"
   y="0"
   width="1000"
   height="271.595"
   viewBox="0 0 1000 271.595"
   id="svg9199"
   inkscape:version="0.91 r13725"
   sodipodi:docname="PayPal old.svg">
  <metadata
     id="metadata9223">
    <rdf:RDF>
      <cc:Work
         rdf:about="">
        <dc:format>image/svg+xml</dc:format>
        <dc:type
           rdf:resource="http://purl.org/dc/dcmitype/StillImage" />
        <dc:title>PayPal Logo</dc:title>
      </cc:Work>
    </rdf:RDF>
  </metadata>
  <defs
     id="defs9221" />
  <sodipodi:namedview
     pagecolor="#ffffff"
     bordercolor="#666666"
     borderopacity="1"
     objecttolerance="10"
     gridtolerance="10"
     guidetolerance="10"
     inkscape:pageopacity="0"
     inkscape:pageshadow="2"
     inkscape:window-width="1366"
     inkscape:window-height="705"
     id="namedview9219"
     showgrid="false"
     inkscape:zoom="0.5"
     inkscape:cx="289.32136"
     inkscape:cy="176.90782"
     inkscape:window-x="-8"
     inkscape:window-y="-8"
     inkscape:window-maximized="1"
     inkscape:current-layer="svg9199" />
  <title
     id="title9201">PayPal Logo</title>
  <rect
     x="200.49561"
     y="53.329437"
     width="610.89081"
     height="120.54375"
     id="rect9203"
     style="fill:none" />
  <path
     d="M 903.72619,-4.6e-4 884.15223,79.657384 C 879.50824,70.045403 871.77626,62.133419 861.15228,56.48943 847.24831,49.181445 827.94634,45.625452 802.1484,45.625452 l -35.41193,2.559995 -29.08595,5.15799 c -1.04399,-2.821995 -2.22799,-5.525989 -3.65399,-8.029984 l 0,-0.028 C 728.61654,35.623472 720.70656,27.617488 710.60658,21.6095 701.3586,16.217511 690.81462,12.55752 678.98864,10.52352 c -0.04,0 -35.34393,-2.66599 -35.34393,-2.66599 l -84.90983,0 -10.14198,41.367915 -66.25786,0 c 0,0 -15.75797,25.565949 -21.20596,34.249931 -0.426,-3.531993 -4.77999,-34.249931 -4.77999,-34.249931 l -97.05181,0 c 0,0 0.75,4.117992 1.89,10.661978 -1.768,-1.177997 -3.632,-2.323995 -5.59399,-3.397993 -13.87597,-7.307985 -33.19393,-10.863978 -58.99388,-10.863978 l -35.41593,2.559995 -29.09194,5.15799 c -1.034,-2.781995 -2.208,-5.46999 -3.642,-8.029984 C 223.04555,35.623472 215.19957,27.615488 205.03559,21.6075 195.79361,16.215511 185.23763,12.55552 173.40765,10.52152 l -35.31993,-2.66599 -84.917826,0 L 0,224.77109 l 99.0858,0 c 0,0 9.55598,-38.85392 13.54397,-55.14789 28.33795,-0.33999 52.4159,-5.34198 71.94186,-14.77397 -1.342,5.49199 -2.16799,11.19198 -2.16799,17.31597 0,16.40597 6.64198,30.71594 19.24996,41.21592 11.83597,9.95198 26.76794,15.04197 44.44791,15.04197 l 22.51395,-2.118 c 0,0 2.784,-0.9 4.81199,-1.538 9.08998,0 82.05184,0 82.05184,0 l 20.27996,-82.69183 c 4.26999,23.95995 7.96798,44.76591 8.99798,50.6439 -7.83598,11.17598 -55.33989,78.87584 -55.33989,78.87584 l 109.46978,0 86.43583,-127.37774 -19.74796,80.54983 99.1018,0 c 0,0 9.48398,-38.85392 13.50797,-55.14789 28.36395,-0.33999 52.4319,-5.34199 71.89986,-14.77397 -1.27,5.49199 -2.156,11.19198 -2.156,17.31597 0,16.40597 6.68199,30.71594 19.26197,41.21592 11.87797,9.95198 26.80394,15.04197 44.41791,15.04197 l 22.59195,-2.118 c 0,0 2.812,-0.9 4.73399,-1.538 l 69.50386,0 c 7.58199,0 12.53398,0 12.53398,0 l 83.83783,0 L 1000,-4.6e-4 l -96.27381,0"
     id="path9205"
     inkscape:connector-curvature="0"
     style="fill:#004990" />
  <path
     d="m 149.4797,105.51133 c -7.84598,5.38199 -18.72396,8.07599 -32.79393,8.07599 l -16.65797,0 12.40398,-50.437903 18.65796,0 c 9.97398,0 17.49196,1.569997 22.58195,4.73799 5.03599,3.179994 7.61199,8.057984 7.61199,14.561971 -0.002,10.00398 -3.93199,17.659962 -11.80398,23.061952 m 56.24389,-49.0219 C 202.4416,50.611442 197.6196,45.781452 191.34962,42.101459 185.04763,38.419466 177.50164,35.781472 168.77366,34.267475 160.03568,32.765478 149.8257,32.021479 138.08572,32.021479 l -64.473867,0 -41.305918,168.539661 46.401908,0 13.465977,-54.96189 17.57996,0 c 31.83394,0 56.60789,-6.14199 74.33185,-18.41396 17.73597,-12.33398 26.58195,-28.487944 26.58195,-48.531904 0,-8.841982 -1.654,-16.207968 -4.94399,-22.163956 z"
     id="path9207"
     inkscape:connector-curvature="0"
     style="fill:#ffffff" />
  <path
     d="m 300.3554,167.45521 c -4.22399,2.88199 -8.75598,5.22399 -13.58397,7.11998 -4.81599,1.838 -9.38198,2.748 -13.62598,2.748 -6.43598,0 -11.35397,-0.82 -14.77397,-2.648 -3.40399,-1.77799 -5.10799,-4.84399 -5.10799,-9.19798 0,-4.92799 1.306,-8.92998 3.882,-11.95797 2.50999,-2.988 6.22398,-5.35199 11.12597,-6.99999 4.68799,-1.558 10.38598,-2.76599 17.10997,-3.60999 6.66599,-0.828 13.84797,-1.504 21.55196,-2.12 l -6.57799,26.66595 m -8.13598,33.10393 42.85591,0 21.24996,-86.50182 c 0.486,-1.804 0.85,-3.922 1.134,-6.31999 0.25199,-2.42 0.44199,-4.39199 0.44199,-5.90799 0,-10.951979 -4.97799,-18.999962 -14.85197,-24.235952 -9.81798,-5.21199 -25.33795,-7.811984 -46.4499,-7.811984 -10.51598,0 -20.98796,0.771998 -31.52794,2.261995 -10.55998,1.581997 -18.35596,2.933994 -23.38395,4.151992 l -6.32599,30.415939 3.92799,0 c 4.28799,-1.464 10.73998,-3.36999 19.29196,-5.64399 8.60599,-2.273994 16.39397,-3.369992 23.51996,-3.369992 10.45597,0 18.31196,1.033998 23.55195,3.145992 5.28799,2.118 7.90198,5.81199 7.90198,11.06398 0,1.268 -0.14,2.40399 -0.364,3.45799 -0.296,1.056 -0.508,1.788 -0.582,2.246 -14.90197,0.822 -28.74394,2.07999 -41.52991,3.84999 -12.81398,1.726 -23.87395,4.57599 -33.12594,8.48798 -9.87398,4.128 -17.34396,9.74598 -22.36795,16.74197 -5.02399,6.97199 -7.48799,15.48797 -7.48799,25.56995 0,9.52198 3.498,17.21596 10.59998,23.17395 7.02599,5.92399 16.19597,8.91199 27.40395,8.91199 6.94598,0 12.38797,-0.48 16.32797,-1.408 3.88799,-0.956 8.13598,-2.286 12.57797,-4.06199 3.31999,-1.33 6.89599,-3.212 10.72398,-5.59999 3.84399,-2.418 7.10198,-4.45399 9.77398,-6.10199 l -3.28599,13.48397 z"
     id="path9209"
     inkscape:connector-curvature="0"
     style="fill:#ffffff" />
  <polyline
     points="222.406,133.712 198.562,133.712 215.882,109.064 204.795,46.688 226.915,46.688 232.744,88.38 258.547,46.688 281.435,46.688 222.406,133.712 "
     id="polyline9211"
     transform="matrix(1.999996,0,0,1.999996,-19.99996,-20.00042)"
     style="fill:#ffffff" />
  <path
     d="m 655.02069,105.51133 c -7.83598,5.38199 -18.72596,8.07599 -32.76993,8.07599 l -16.66797,0 12.38797,-50.437903 18.66397,0 c 9.95198,0 17.51796,1.569997 22.59795,4.73799 5.07399,3.179994 7.58199,8.057984 7.58199,14.561971 0,10.00398 -3.87,17.659962 -11.79398,23.061952 m 56.21989,-49.0219 c -3.282,-5.877988 -8.06399,-10.707978 -14.28397,-14.387971 -6.34799,-3.681993 -13.90198,-6.319987 -22.66996,-7.833984 -8.71798,-1.501997 -18.87196,-2.245996 -30.64394,-2.245996 l -64.50987,0 -41.28992,168.539661 46.43191,0 13.46597,-54.96189 17.58597,0 c 31.81594,0 56.59989,-6.14199 74.30785,-18.41396 17.71797,-12.33398 26.58195,-28.487944 26.58195,-48.531904 0.004,-8.841982 -1.662,-16.207968 -4.97599,-22.163956 z"
     id="path9213"
     inkscape:connector-curvature="0"
     style="fill:#ffffff" />
  <path
     d="m 805.93439,167.45521 c -4.23999,2.88199 -8.80598,5.22399 -13.60597,7.11998 -4.812,1.838 -9.37199,2.748 -13.56198,2.748 -6.49398,0 -11.46597,-0.82 -14.79197,-2.648 -3.44999,-1.77799 -5.14599,-4.84399 -5.14599,-9.19798 0,-4.92799 1.28,-8.92998 3.84999,-11.95797 2.542,-2.988 6.20399,-5.35199 11.11998,-6.99999 4.73999,-1.558 10.39998,-2.76599 17.11197,-3.60999 6.72198,-0.828 13.93797,-1.504 21.56396,-2.12 l -6.53999,26.66595 m -8.20399,33.10393 42.93992,0 21.20196,-86.50182 c 0.474,-1.804 0.86599,-3.922 1.14999,-6.31999 0.28,-2.42 0.442,-4.39199 0.442,-5.90799 0,-10.951979 -4.97799,-18.999962 -14.84797,-24.235952 -9.81798,-5.21199 -25.34795,-7.811984 -46.4679,-7.811984 -10.44598,0 -21.01196,0.771998 -31.52394,2.261995 -10.57198,1.581997 -18.34396,2.933994 -23.42395,4.151992 l -6.31399,30.415939 3.98399,0 c 4.25199,-1.464 10.68998,-3.36999 19.26796,-5.64399 8.58798,-2.273994 16.38197,-3.369992 23.49595,-3.369992 10.51198,0 18.29997,1.033998 23.59996,3.145992 5.26399,2.118 7.91198,5.81199 7.91198,11.06398 0,1.268 -0.174,2.40399 -0.442,3.45799 -0.292,1.056 -0.408,1.788 -0.526,2.246 -14.96997,0.822 -28.78394,2.07999 -41.56391,3.84999 -12.77398,1.726 -23.81396,4.57599 -33.10394,8.48798 -9.89998,4.128 -17.34996,9.74598 -22.38395,16.74197 -4.98999,6.97199 -7.49799,15.48797 -7.49799,25.56995 0,9.52198 3.532,17.21596 10.62598,23.17395 7.09799,5.92399 16.15597,8.91199 27.35395,8.91199 7.01398,0 12.42197,-0.48 16.38996,-1.408 3.928,-0.956 8.12599,-2.286 12.52198,-4.06199 3.34199,-1.33 6.95199,-3.212 10.72398,-5.59999 3.85599,-2.418 7.11998,-4.45399 9.88998,-6.10199 l -3.404,13.48397 z"
     id="path9215"
     inkscape:connector-curvature="0"
     style="fill:#ffffff" />
  <polyline
     points="493.85,22.084 472.201,110.28 450.403,110.28 472.053,22.084 493.85,22.084 "
     id="polyline9217"
     transform="matrix(1.999996,0,0,1.999996,-19.99996,-20.00042)"
     style="fill:#ffffff" />
</svg>
