<svg width="575" height="144" viewBox="0 0 575 144" fill="none" xmlns="http://www.w3.org/2000/svg">
<path d="M71.4678 74.1084C71.4678 86.3154 68.6846 96.1055 63.1182 103.479C57.6006 110.803 50.1299 114.465 40.7061 114.465C32.6982 114.465 26.2285 111.682 21.2969 106.115V143.469H0.129883V33.752H19.7588L20.4912 41.5156C25.6182 35.3633 32.3076 32.2871 40.5596 32.2871C50.3252 32.2871 57.918 35.9004 63.3379 43.127C68.7578 50.3535 71.4678 60.3145 71.4678 73.0098V74.1084ZM50.3008 72.5703C50.3008 65.1973 48.9824 59.5088 46.3457 55.5049C43.7578 51.501 39.9736 49.499 34.9932 49.499C28.3525 49.499 23.7871 52.0381 21.2969 57.1162V89.5625C23.8848 94.7871 28.499 97.3994 35.1396 97.3994C45.2471 97.3994 50.3008 89.123 50.3008 72.5703ZM112.571 91.1006C112.571 88.5127 111.277 86.4863 108.689 85.0215C106.15 83.5078 102.049 82.165 96.3848 80.9932C77.5371 77.0381 68.1133 69.0303 68.1133 56.9697C68.1133 49.9385 71.0186 44.0791 76.8291 39.3916C82.6885 34.6553 90.3301 32.2871 99.7539 32.2871C109.812 32.2871 117.845 34.6553 123.851 39.3916C129.905 44.1279 132.933 50.2803 132.933 57.8486H111.766C111.766 54.8213 110.789 52.3311 108.836 50.3779C106.883 48.376 103.831 47.375 99.6807 47.375C96.1162 47.375 93.3574 48.1807 91.4043 49.792C89.4512 51.4033 88.4746 53.4541 88.4746 55.9443C88.4746 58.2881 89.5732 60.1924 91.7705 61.6572C94.0166 63.0732 97.7764 64.3184 103.05 65.3926C108.323 66.418 112.767 67.5898 116.38 68.9082C127.562 73.0098 133.152 80.1143 133.152 90.2217C133.152 97.4482 130.052 103.308 123.851 107.8C117.649 112.243 109.642 114.465 99.8271 114.465C93.1865 114.465 87.2783 113.293 82.1025 110.949C76.9756 108.557 72.9473 105.31 70.0176 101.208C67.0879 97.0576 65.623 92.5898 65.623 87.8047H85.6914C85.8867 91.5645 87.2783 94.4453 89.8662 96.4473C92.4541 98.4492 95.9209 99.4502 100.267 99.4502C104.319 99.4502 107.371 98.6934 109.422 97.1797C111.521 95.6172 112.571 93.5908 112.571 91.1006ZM164.808 97.3994C168.714 97.3994 171.888 96.3252 174.329 94.1768C176.771 92.0283 178.04 89.1719 178.138 85.6074H197.986C197.938 90.9785 196.473 95.9102 193.592 100.402C190.711 104.846 186.756 108.312 181.727 110.803C176.746 113.244 171.229 114.465 165.174 114.465C153.846 114.465 144.91 110.876 138.367 103.698C131.824 96.4717 128.553 86.5107 128.553 73.8154V72.4238C128.553 60.2168 131.8 50.4756 138.294 43.2002C144.788 35.9248 153.699 32.2871 165.027 32.2871C174.939 32.2871 182.874 35.1191 188.831 40.7832C194.837 46.3984 197.889 53.8936 197.986 63.2686H178.138C178.04 59.167 176.771 55.8467 174.329 53.3076C171.888 50.7197 168.665 49.4258 164.661 49.4258C159.729 49.4258 155.994 51.2324 153.455 54.8457C150.965 58.4102 149.72 64.2207 149.72 72.2773V74.4746C149.72 82.6289 150.965 88.4883 153.455 92.0527C155.945 95.6172 159.729 97.3994 164.808 97.3994ZM196.463 113V6.35938H233.816C246.756 6.35938 256.57 8.84961 263.26 13.8301C269.949 18.7617 273.294 26.0127 273.294 35.583C273.294 40.8076 271.951 45.4219 269.266 49.4258C266.58 53.3809 262.845 56.2861 258.06 58.1416C263.528 59.5088 267.825 62.2676 270.95 66.418C274.124 70.5684 275.711 75.6465 275.711 81.6523C275.711 91.9062 272.439 99.6699 265.896 104.943C259.354 110.217 250.027 112.902 237.918 113H196.463ZM218.436 66.5645V95.3486H237.259C242.435 95.3486 246.463 94.1279 249.344 91.6865C252.273 89.1963 253.738 85.7783 253.738 81.4326C253.738 71.667 248.685 66.7109 238.577 66.5645H218.436ZM218.436 51.0371H234.695C245.779 50.8418 251.321 46.4229 251.321 37.7803C251.321 32.9463 249.905 29.4795 247.073 27.3799C244.29 25.2314 239.871 24.1572 233.816 24.1572H218.436V51.0371ZM320.403 53.6006C317.522 53.21 314.983 53.0146 312.786 53.0146C304.778 53.0146 299.529 55.7246 297.039 61.1445V113H275.872V33.752H295.867L296.453 43.2002C300.701 35.9248 306.585 32.2871 314.104 32.2871C316.448 32.2871 318.646 32.6045 320.696 33.2393L320.403 53.6006ZM350.667 114.465C339.046 114.465 329.573 110.9 322.249 103.771C314.974 96.6426 311.336 87.1455 311.336 75.2803V73.2295C311.336 65.2705 312.874 58.166 315.95 51.916C319.026 45.6172 323.372 40.7832 328.987 37.4141C334.651 33.9961 341.097 32.2871 348.323 32.2871C359.163 32.2871 367.684 35.7051 373.885 42.541C380.135 49.377 383.26 59.0693 383.26 71.6182V80.2607H332.796C333.479 85.4365 335.53 89.5869 338.948 92.7119C342.415 95.8369 346.785 97.3994 352.059 97.3994C360.213 97.3994 366.585 94.4453 371.175 88.5371L381.575 100.183C378.401 104.675 374.104 108.19 368.685 110.729C363.265 113.22 357.259 114.465 350.667 114.465ZM348.25 49.4258C344.051 49.4258 340.633 50.8418 337.996 53.6738C335.408 56.5059 333.748 60.5586 333.016 65.832H362.459V64.1475C362.361 59.46 361.092 55.8467 358.65 53.3076C356.209 50.7197 352.742 49.4258 348.25 49.4258ZM426.268 113C425.291 111.096 424.583 108.728 424.144 105.896C419.017 111.608 412.352 114.465 404.148 114.465C396.385 114.465 389.939 112.219 384.812 107.727C379.734 103.234 377.195 97.5703 377.195 90.7344C377.195 82.3359 380.296 75.8906 386.497 71.3984C392.747 66.9062 401.756 64.6357 413.523 64.5869H423.265V60.0459C423.265 56.3838 422.312 53.4541 420.408 51.2568C418.553 49.0596 415.599 47.9609 411.546 47.9609C407.981 47.9609 405.174 48.8154 403.123 50.5244C401.121 52.2334 400.12 54.5771 400.12 57.5557H378.953C378.953 52.9658 380.369 48.7178 383.201 44.8115C386.033 40.9053 390.037 37.8535 395.213 35.6562C400.389 33.4102 406.199 32.2871 412.645 32.2871C422.41 32.2871 430.149 34.7529 435.862 39.6846C441.624 44.5674 444.505 51.4521 444.505 60.3389V94.6895C444.554 102.209 445.604 107.897 447.654 111.755V113H426.268ZM408.763 98.2783C411.888 98.2783 414.769 97.5947 417.405 96.2275C420.042 94.8115 421.995 92.9316 423.265 90.5879V76.9648H415.354C404.759 76.9648 399.119 80.627 398.436 87.9512L398.362 89.1963C398.362 91.833 399.29 94.0059 401.146 95.7148C403.001 97.4238 405.54 98.2783 408.763 98.2783ZM474.549 81.2129L466.932 88.8301V113H445.765V0.5H466.932V62.8291L471.033 57.5557L491.321 33.752H516.736L488.099 66.7842L519.227 113H494.91L474.549 81.2129ZM553.812 91.1006C553.812 88.5127 552.518 86.4863 549.93 85.0215C547.391 83.5078 543.289 82.165 537.625 80.9932C518.777 77.0381 509.354 69.0303 509.354 56.9697C509.354 49.9385 512.259 44.0791 518.069 39.3916C523.929 34.6553 531.57 32.2871 540.994 32.2871C551.053 32.2871 559.085 34.6553 565.091 39.3916C571.146 44.1279 574.173 50.2803 574.173 57.8486H553.006C553.006 54.8213 552.029 52.3311 550.076 50.3779C548.123 48.376 545.071 47.375 540.921 47.375C537.356 47.375 534.598 48.1807 532.645 49.792C530.691 51.4033 529.715 53.4541 529.715 55.9443C529.715 58.2881 530.813 60.1924 533.011 61.6572C535.257 63.0732 539.017 64.3184 544.29 65.3926C549.563 66.418 554.007 67.5898 557.62 68.9082C568.802 73.0098 574.393 80.1143 574.393 90.2217C574.393 97.4482 571.292 103.308 565.091 107.8C558.89 112.243 550.882 114.465 541.067 114.465C534.427 114.465 528.519 113.293 523.343 110.949C518.216 108.557 514.188 105.31 511.258 101.208C508.328 97.0576 506.863 92.5898 506.863 87.8047H526.932C527.127 91.5645 528.519 94.4453 531.106 96.4473C533.694 98.4492 537.161 99.4502 541.507 99.4502C545.56 99.4502 548.611 98.6934 550.662 97.1797C552.762 95.6172 553.812 93.5908 553.812 91.1006Z" fill="#253652"/>
</svg>
