<?xml version="1.0" standalone="no"?>
<!DOCTYPE svg PUBLIC "-//W3C//DTD SVG 20010904//EN"
 "http://www.w3.org/TR/2001/REC-SVG-20010904/DTD/svg10.dtd">
<svg version="1.0" xmlns="http://www.w3.org/2000/svg"
 width="180.000000pt" height="180.000000pt" viewBox="0 0 180.000000 180.000000"
 preserveAspectRatio="xMidYMid meet">
<metadata>
Created by potrace 1.11, written by Peter Selinger 2001-2013
</metadata>
<g transform="translate(0.000000,180.000000) scale(0.100000,-0.100000)"
fill="#000000" stroke="none">
<path d="M0 900 l0 -900 900 0 900 0 0 900 0 900 -900 0 -900 0 0 -900z m1350
103 l1 -78 27 33 c18 22 36 32 55 32 34 0 34 -7 0 -42 -27 -28 -27 -29 -9 -62
14 -27 22 -32 42 -28 15 3 32 -3 45 -14 15 -14 24 -16 37 -7 25 15 18 27 -25
41 -46 15 -73 45 -66 72 14 53 97 67 139 25 14 -14 22 -30 19 -35 -9 -15 -45
-12 -51 5 -4 8 -17 15 -31 15 -40 0 -24 -31 25 -48 54 -18 72 -50 49 -85 -16
-24 -70 -43 -90 -30 -5 3 -31 5 -56 4 -43 -1 -48 1 -65 34 -23 42 -40 41 -44
-4 l-3 -32 -68 2 c-38 1 -74 -1 -80 -5 -6 -4 -25 0 -43 8 -18 10 -36 12 -42 7
-23 -18 -67 -21 -99 -7 -40 16 -62 61 -54 111 6 38 6 38 -17 29 -12 -5 -16
-21 -16 -75 l0 -69 -30 0 c-25 0 -30 4 -30 25 l0 24 -25 -24 c-21 -22 -33 -25
-100 -25 -63 0 -75 3 -75 17 0 14 -2 15 -17 1 -10 -9 -28 -19 -40 -22 -26 -8
-93 18 -93 35 0 7 -12 2 -26 -12 -31 -29 -93 -32 -122 -5 -20 17 -21 17 -50
-4 -26 -19 -35 -21 -61 -12 l-31 11 0 -45 c0 -40 -2 -44 -25 -44 l-25 0 0 135
0 136 33 -1 c17 0 46 2 64 6 24 5 36 1 52 -15 l22 -22 26 21 c32 25 69 26 109
1 29 -18 31 -18 53 0 35 29 100 21 123 -15 4 -6 8 13 8 42 l0 52 73 0 c87 0
117 -16 117 -62 0 -17 -6 -39 -13 -47 -12 -14 -11 -19 5 -33 17 -17 18 -16 18
27 0 45 0 46 33 44 17 0 42 2 55 6 17 6 22 3 22 -9 0 -16 2 -16 22 -2 31 22
70 20 102 -5 l26 -20 26 20 c43 34 105 24 130 -20 12 -22 13 -18 14 49 0 70 1
72 25 72 24 0 25 -2 25 -77z"/>
<path d="M730 986 c0 -31 3 -36 23 -36 13 0 32 6 43 14 26 20 8 50 -35 54 -30
3 -31 2 -31 -32z"/>
<path d="M246 947 c-13 -10 -17 -24 -14 -57 3 -43 5 -45 33 -45 29 0 30 2 33
47 2 38 -1 49 -16 57 -14 7 -24 7 -36 -2z"/>
<path d="M405 950 c-10 -16 3 -28 38 -35 17 -4 38 -12 45 -17 9 -8 12 -5 12
11 0 14 -6 21 -19 21 -10 0 -21 7 -25 15 -6 17 -42 20 -51 5z"/>
<path d="M571 946 c-7 -8 -11 -34 -9 -58 3 -37 6 -43 27 -46 15 -2 28 3 33 12
5 9 18 16 28 16 15 0 20 7 20 25 0 17 -5 25 -18 25 -10 0 -25 9 -35 20 -20 24
-30 25 -46 6z"/>
<path d="M1038 949 c-29 -16 -22 -39 11 -39 37 0 46 13 25 34 -8 9 -16 16 -17
16 -1 0 -10 -5 -19 -11z"/>
<path d="M1185 951 c-3 -6 -15 -11 -26 -11 -12 0 -19 -7 -19 -20 0 -17 3 -18
26 -10 14 6 37 10 50 10 19 0 25 5 22 18 -4 19 -43 29 -53 13z"/>
<path d="M730 876 c0 -33 3 -36 28 -36 38 0 54 13 50 41 -2 20 -10 25 -40 27
-37 3 -38 3 -38 -32z"/>
<path d="M360 881 c0 -14 6 -21 19 -21 10 0 22 -7 25 -16 8 -20 50 -15 54 7 2
10 -10 20 -35 28 -21 7 -44 15 -50 17 -8 4 -13 -2 -13 -15z"/>
<path d="M1193 883 c-7 -2 -13 -13 -13 -23 0 -10 6 -20 13 -23 20 -7 47 12 47
33 0 20 -19 25 -47 13z"/>
<path d="M1020 860 c15 -29 92 -24 104 6 4 11 -7 14 -55 14 -57 0 -59 -1 -49
-20z"/>
</g>
</svg>
